<svg xmlns="http://www.w3.org/2000/svg" xmlns:xlink="http://www.w3.org/1999/xlink" width="180" height="44" viewBox="0 0 180 44">
  <defs>
    <clipPath id="clip-path">
      <rect width="180" height="44" fill="none"/>
    </clipPath>
    <clipPath id="clip-path-2">
      <path id="Clip_2" data-name="Clip 2" d="M0,0H25.972V33.93H0Z" transform="translate(0 0.043)" fill="none"/>
    </clipPath>
    <clipPath id="clip-path-3">
      <path id="Clip_7" data-name="Clip 7" d="M0,0H27.94V33.93H0Z" transform="translate(0.045 0.043)" fill="none"/>
    </clipPath>
    <clipPath id="clip-path-4">
      <path id="Clip_14" data-name="Clip 14" d="M0,44H179V0H0Z" fill="none"/>
    </clipPath>
  </defs>
  <g id="Logo" clip-path="url(#clip-path)">
    <g id="Page_1" data-name="Page 1">
      <g id="Group_3" data-name="Group 3">
        <path id="Clip_2-2" data-name="Clip 2" d="M0,0H25.972V33.93H0Z" transform="translate(0 0.043)" fill="none"/>
        <g id="Group_3-2" data-name="Group 3" clip-path="url(#clip-path-2)">
          <path id="Fill_1" data-name="Fill 1" d="M6.8,33.931H0V0H13.009c3.7,0,6.74,1.125,8.8,3.254a10.657,10.657,0,0,1,2.833,7.489A10.881,10.881,0,0,1,23,16.6a10.117,10.117,0,0,1-5.258,4.1L25.97,33.928l-7.951,0L10.848,21.579H6.8V33.93ZM6.8,6.29v9.183h5.561c2.556,0,5.288-1.218,5.288-4.637A4.374,4.374,0,0,0,12.963,6.29Z" transform="translate(0 0.043)" fill="#b2d235"/>
        </g>
      </g>
      <path id="Fill_4" data-name="Fill 4" d="M13.286,26c-4.234,0-7.719-1.382-10.077-4A13.311,13.311,0,0,1,0,13.022,13.285,13.285,0,0,1,3.512,3.728,11.75,11.75,0,0,1,7.536.991,13.582,13.582,0,0,1,12.747,0,13.74,13.74,0,0,1,17.6.842a11.151,11.151,0,0,1,3.886,2.442A12.449,12.449,0,0,1,25,12.476a18.776,18.776,0,0,1-.225,2.823H6.418a6.876,6.876,0,0,0,2.289,3.768,7.5,7.5,0,0,0,4.848,1.514,14.848,14.848,0,0,0,7.9-2.5l2.513,4.508A18.222,18.222,0,0,1,13.286,26ZM12.747,5.327A6.323,6.323,0,0,0,8.673,6.71a6.884,6.884,0,0,0-2.256,3.808H18.851a6.413,6.413,0,0,0-2.059-3.791A6.105,6.105,0,0,0,12.747,5.327Z" transform="translate(27 8)" fill="#b2d235"/>
      <g id="Group_8" data-name="Group 8" transform="translate(60)">
        <path id="Clip_7-2" data-name="Clip 7" d="M0,0H27.94V33.93H0Z" transform="translate(0.045 0.043)" fill="none"/>
        <g id="Group_8-2" data-name="Group 8" clip-path="url(#clip-path-3)">
          <path id="Fill_6" data-name="Fill 6" d="M14.908,33.93H0L4.985,0H19.3c3.018,0,5.415.917,6.932,2.653a7.346,7.346,0,0,1,1.631,5.842,8.483,8.483,0,0,1-5.619,6.887,6.594,6.594,0,0,1,4.271,3.231,8.917,8.917,0,0,1,.8,5.538,10.882,10.882,0,0,1-3.744,6.938A13.224,13.224,0,0,1,14.908,33.93ZM8.79,19.008,7.476,27.961h6.57a7.2,7.2,0,0,0,4.747-1.429,4.9,4.9,0,0,0,1.688-3.117,3.81,3.81,0,0,0-.791-3.093,4.422,4.422,0,0,0-3.47-1.314H8.79ZM10.739,5.923h0L9.652,13.315h6.433a5.13,5.13,0,0,0,3.523-1.257,4.491,4.491,0,0,0,1.415-2.6,3.11,3.11,0,0,0-.677-2.487,3.558,3.558,0,0,0-2.766-1.049H10.739Z" transform="translate(0.045 0.043)" fill="#002f6c"/>
        </g>
      </g>
      <path id="Fill_9" data-name="Fill 9" d="M11.782,26a13.522,13.522,0,0,1-5.4-1.045,10.421,10.421,0,0,1-3.857-2.831A11.539,11.539,0,0,1,.192,12.593,15.127,15.127,0,0,1,15.29,0a13.359,13.359,0,0,1,5.387,1.055,10.34,10.34,0,0,1,3.858,2.878,11.818,11.818,0,0,1,2.206,9.927A14.857,14.857,0,0,1,21.5,22.6,15.461,15.461,0,0,1,11.782,26ZM14.644,5.934A8,8,0,0,0,9.472,7.893a8.383,8.383,0,0,0-2.817,4.881,6.383,6.383,0,0,0,1.2,5.341,5.636,5.636,0,0,0,4.437,1.952A8.07,8.07,0,0,0,17.576,18a8.349,8.349,0,0,0,2.793-4.954,6.243,6.243,0,0,0-1.264-5.158A5.717,5.717,0,0,0,14.644,5.934Z" transform="translate(92 7)" fill="#002f6c"/>
      <path id="Fill_11" data-name="Fill 11" d="M34.2,11.136,39.924,0H33.06L25.6,15.75,22.257,0h-4.59L9.413,15.75,6.862,0H0L4.868,24h5.7L18.594,8.912,21.886,24h5.7l.577-1.123H40.158V19.395h-10.2l2.233-4.346H50V11.136Z" transform="translate(121 9)" fill="#002f6c"/>
      <path id="Clip_14-2" data-name="Clip 14" d="M0,44H179V0H0Z" fill="none"/>
      <g clip-path="url(#clip-path-4)">
        <path id="Fill_13" data-name="Fill 13" d="M0,4H7V0H0Z" transform="translate(163 29)" fill="#002f6c"/>
        <path id="Fill_17" data-name="Fill 17" d="M93,0H0V3.327H3.708a2.975,2.975,0,0,0-.061.6A3.133,3.133,0,0,0,6.838,7a3.133,3.133,0,0,0,3.191-3.072,2.975,2.975,0,0,0-.061-.6H83.2a2.975,2.975,0,0,0-.061.6,3.193,3.193,0,0,0,6.382,0,2.971,2.971,0,0,0-.061-.6H93Z" transform="translate(59 37)" fill="#002f6c"/>
      </g>
    </g>
    <g id="Page_1-2" data-name="Page 1" transform="translate(171 1)">
      <path id="Fill_1-2" data-name="Fill 1" d="M0,0V.609H1.238V5h.523V.609H3V0Z" fill="#a5a2a2"/>
      <path id="Fill_2" data-name="Fill 2" d="M4.717,0,2.507,3.221.275,0H0V5H.634V1.543L2.417,4.127h.158L4.359,1.543V5H5V0Z" transform="translate(4)" fill="#a5a2a2"/>
    </g>
  </g>
</svg>
