<svg id="Page_1" data-name="Page 1" xmlns="http://www.w3.org/2000/svg" xmlns:xlink="http://www.w3.org/1999/xlink" width="66" height="59" viewBox="0 0 66 59">
  <defs>
    <clipPath id="clip-path">
      <path id="Clip_8" data-name="Clip 8" d="M.342,0V2.722H0V0H.342Z" transform="translate(0.262 0.254)" fill="none"/>
    </clipPath>
    <clipPath id="clip-path-2">
      <path id="Clip_11" data-name="Clip 11" d="M0,59H66V0H0Z" fill="none"/>
    </clipPath>
  </defs>
  <path id="Fill_1" data-name="Fill 1" d="M3,1.5A1.5,1.5,0,1,1,1.5,0,1.5,1.5,0,0,1,3,1.5Z" transform="translate(50 56)" fill="#323233"/>
  <path id="Fill_3" data-name="Fill 3" d="M.342,3h0c.188,0,.342-.1.342-.226V.226C.684.1.53,0,.342,0S0,.1,0,.226V2.774C0,2.9.155,3,.342,3" transform="translate(43 32)" fill="#323233"/>
  <path id="Fill_5" data-name="Fill 5" d="M.342,3h0c.188,0,.342-.1.342-.226V.226C.684.1.53,0,.342,0S0,.1,0,.226V2.774C0,2.9.155,3,.342,3" transform="translate(43 35)" fill="#323233"/>
  <g id="Group_9" data-name="Group 9" transform="translate(60 32)">
    <path id="Clip_8-2" data-name="Clip 8" d="M.342,0V2.722H0V0H.342Z" transform="translate(0.262 0.254)" fill="none"/>
    <g id="Group_9-2" data-name="Group 9" clip-path="url(#clip-path)">
      <path id="Fill_7" data-name="Fill 7" d="M.171,2.722h0a.191.191,0,0,0,.171-.205V.205A.191.191,0,0,0,.171,0,.191.191,0,0,0,0,.205V2.516a.191.191,0,0,0,.171.205" transform="translate(0.262 0.254)" fill="#323233"/>
    </g>
  </g>
  <path id="Clip_11-2" data-name="Clip 11" d="M0,59H66V0H0Z" fill="none"/>
  <g clip-path="url(#clip-path-2)">
    <path id="Fill_10" data-name="Fill 10" d="M14.442,34H3.558A3.535,3.535,0,0,1,0,30.5V3.5A3.535,3.535,0,0,1,3.558,0H14.442A3.535,3.535,0,0,1,18,3.5V30.5A3.535,3.535,0,0,1,14.442,34ZM9,30.386a1.6,1.6,0,1,0,1.623,1.6A1.613,1.613,0,0,0,9,30.386ZM.74,2.662V30.071h16.52V2.662ZM6.047.8a.481.481,0,1,0,.488.481A.485.485,0,0,0,6.047.8Zm1.33.431v.493h3.245V1.233Z" transform="translate(43 25)" fill="#b4d339"/>
    <path id="Fill_12" data-name="Fill 12" d="M16.819,7.6l-1.485-.873a1.344,1.344,0,0,1-.6-1C14.533,4.974,14.185,0,14.185,0H2.769L2.34,4.867a4.558,4.558,0,0,1-.22,1.3,4.131,4.131,0,0,1-1.891,1.4C-.305,7.857.263,8,.263,8H16.784c.464-.12.035-.4.035-.4" transform="translate(20 40)" fill="#b4d339"/>
    <path id="Fill_13" data-name="Fill 13" d="M0,8H47V0H0Z" transform="translate(5 6)" fill="#b4d339"/>
    <path id="Fill_14" data-name="Fill 14" d="M0,6H13V0H0Z" transform="translate(45 31)" fill="#b4d339"/>
    <path id="Fill_15" data-name="Fill 15" d="M0,6H13V0H0Z" transform="translate(45 39)" fill="#b4d339"/>
    <path id="Fill_16" data-name="Fill 16" d="M0,6H13V0H0Z" transform="translate(45 46)" fill="#b4d339"/>
    <path id="Fill_17" data-name="Fill 17" d="M0,7H22V0H0Z" transform="translate(5 15)" fill="#b4d339"/>
    <path id="Fill_18" data-name="Fill 18" d="M0,7H22V0H0Z" transform="translate(31 15)" fill="#b4d339"/>
    <path id="Fill_19" data-name="Fill 19" d="M40,5H1.17A1.148,1.148,0,0,1,0,3.879V0H40V5ZM29,1.375a1.118,1.118,0,0,0-1.14,1.093,1.141,1.141,0,0,0,2.281,0A1.118,1.118,0,0,0,29,1.375Z" transform="translate(0 35)" fill="#b4d339"/>
    <path id="Fill_20" data-name="Fill 20" d="M40.106,32.685H2.228V2.256H55.772v20.9H58V1.188A1.18,1.18,0,0,0,56.827,0H1.173A1.18,1.18,0,0,0,0,1.188V35H40.106Z" transform="translate(0 1)" fill="#b4d339"/>
  </g>
</svg>
