<svg id="Page_1" data-name="Page 1" xmlns="http://www.w3.org/2000/svg" xmlns:xlink="http://www.w3.org/1999/xlink" width="157" height="38" viewBox="0 0 157 38">
  <defs>
    <clipPath id="clip-path">
      <path id="Clip_2" data-name="Clip 2" d="M0,0H22.886V29.8H0Z" transform="translate(0 0.089)" fill="none"/>
    </clipPath>
    <clipPath id="clip-path-2">
      <path id="Clip_7" data-name="Clip 7" d="M0,0H24.864V29.8H0Z" transform="translate(0.01 0.089)" fill="none"/>
    </clipPath>
    <clipPath id="clip-path-3">
      <path id="Clip_14" data-name="Clip 14" d="M0,38H157V0H0Z" fill="none"/>
    </clipPath>
  </defs>
  <g id="Group_3" data-name="Group 3">
    <path id="Clip_2-2" data-name="Clip 2" d="M0,0H22.886V29.8H0Z" transform="translate(0 0.089)" fill="none"/>
    <g id="Group_3-2" data-name="Group 3" clip-path="url(#clip-path)">
      <path id="Fill_1" data-name="Fill 1" d="M5.995,29.8H0V0H11.463a10.477,10.477,0,0,1,7.751,2.858,9.341,9.341,0,0,1,2.5,6.577,9.531,9.531,0,0,1-1.443,5.146,8.91,8.91,0,0,1-4.633,3.6l7.25,11.61-7.007,0L9.559,18.95H5.995V29.8Zm0-24.273v8.064h4.9c2.252,0,4.658-1.07,4.658-4.073a3.847,3.847,0,0,0-4.131-3.991Z" transform="translate(0 0.089)" fill="#bbb"/>
    </g>
  </g>
  <path id="Fill_4" data-name="Fill 4" d="M11.691,23a11.5,11.5,0,0,1-8.867-3.535A11.812,11.812,0,0,1,0,11.52,11.787,11.787,0,0,1,3.091,3.3,10.337,10.337,0,0,1,6.632.877,11.9,11.9,0,0,1,11.218,0a12.033,12.033,0,0,1,4.267.745A9.8,9.8,0,0,1,18.9,2.905,11.045,11.045,0,0,1,22,11.037a16.717,16.717,0,0,1-.2,2.5H5.648a6.088,6.088,0,0,0,2.015,3.333,6.573,6.573,0,0,0,4.266,1.339,13.027,13.027,0,0,0,6.952-2.215l2.211,3.988A15.987,15.987,0,0,1,11.691,23ZM11.218,4.712A5.546,5.546,0,0,0,7.633,5.936,6.1,6.1,0,0,0,5.648,9.3h10.94a5.677,5.677,0,0,0-1.811-3.353A5.355,5.355,0,0,0,11.218,4.712Z" transform="translate(24 7)" fill="#bbb"/>
  <g id="Group_8" data-name="Group 8" transform="translate(53)">
    <path id="Clip_7-2" data-name="Clip 7" d="M0,0H24.864V29.8H0Z" transform="translate(0.01 0.089)" fill="none"/>
    <g id="Group_8-2" data-name="Group 8" clip-path="url(#clip-path-2)">
      <path id="Fill_6" data-name="Fill 6" d="M13.266,29.8H0L4.436,0H17.177a7.924,7.924,0,0,1,6.2,2.361,6.4,6.4,0,0,1,1.424,5.1,7.474,7.474,0,0,1-5,6.048,5.862,5.862,0,0,1,3.8,2.838,7.738,7.738,0,0,1,.715,4.864A9.521,9.521,0,0,1,20.982,27.3,11.871,11.871,0,0,1,13.266,29.8Zm-5.443-13.1h0l-1.17,7.862H12.5c4.653,0,5.555-2.792,5.727-3.992a3.321,3.321,0,0,0-.69-2.7,3.95,3.95,0,0,0-3.1-1.169H7.823ZM9.556,5.2,8.59,11.693h5.725a4.6,4.6,0,0,0,3.135-1.1,3.926,3.926,0,0,0,1.259-2.283,2.709,2.709,0,0,0-.59-2.17A3.18,3.18,0,0,0,15.645,5.2Z" transform="translate(0.01 0.089)" fill="#bbb"/>
    </g>
  </g>
  <path id="Fill_9" data-name="Fill 9" d="M10.472,23a12.063,12.063,0,0,1-4.808-.929,9.255,9.255,0,0,1-3.432-2.518A10.179,10.179,0,0,1,.17,11.139,13.429,13.429,0,0,1,13.591,0a10.4,10.4,0,0,1,8.234,3.5,10.426,10.426,0,0,1,1.945,8.763,13.2,13.2,0,0,1-4.664,7.728A13.786,13.786,0,0,1,10.472,23ZM13.017,5.249a7.128,7.128,0,0,0-4.6,1.733,7.407,7.407,0,0,0-2.5,4.318,5.629,5.629,0,0,0,1.055,4.715,5.017,5.017,0,0,0,3.952,1.737,7.193,7.193,0,0,0,4.7-1.828,7.378,7.378,0,0,0,2.483-4.383,5.507,5.507,0,0,0-1.116-4.553A5.09,5.09,0,0,0,13.017,5.249Z" transform="translate(80 7)" fill="#bbb"/>
  <path id="Fill_11" data-name="Fill 11" d="M29.413,9.744,34.334,0h-5.9L22.012,13.781,19.141,0H15.193L8.1,13.781,5.9,0H0L4.187,21h4.9l6.9-13.2L18.822,21h4.9l.5-.983H34.536V16.971H25.762l1.921-3.8H43V9.744Z" transform="translate(106 8)" fill="#bbb"/>
  <path id="Clip_14-2" data-name="Clip 14" d="M0,38H157V0H0Z" fill="none"/>
  <g clip-path="url(#clip-path-3)">
    <path id="Fill_13" data-name="Fill 13" d="M0,3H6V0H0Z" transform="translate(142 26)" fill="#bbb"/>
    <path id="Fill_15" data-name="Fill 15" d="M0,.365V0H3V.365H1.762V3H1.238V.365Z" transform="translate(151 5)" fill="#bbb"/>
    <path id="Fill_16" data-name="Fill 16" d="M0,0H.165L1.5,1.932,2.831,0H3V3H2.616V.926L1.545,2.476h-.1L.38.926V3H0Z" transform="translate(154 5)" fill="#bbb"/>
    <path id="Fill_17" data-name="Fill 17" d="M82,0H0V2.852H3.27a2.486,2.486,0,0,0-.054.515A2.728,2.728,0,0,0,6.029,6,2.728,2.728,0,0,0,8.843,3.367a2.486,2.486,0,0,0-.054-.515H73.363a2.485,2.485,0,0,0-.054.515,2.82,2.82,0,0,0,5.627,0,2.485,2.485,0,0,0-.054-.515H82Z" transform="translate(51 32)" fill="#bbb"/>
  </g>
</svg>
