<svg xmlns="http://www.w3.org/2000/svg" xmlns:xlink="http://www.w3.org/1999/xlink" width="51.522" height="66.891" viewBox="0 0 51.522 66.891">
  <defs>
    <clipPath id="clip-path">
      <path id="Clip_10" data-name="Clip 10" d="M0,0V9.906H51.522V0H0Z" transform="translate(0 0.971)" fill="none"/>
    </clipPath>
    <clipPath id="clip-path-2">
      <path id="Clip_18" data-name="Clip 18" d="M0,9.907V0H51.522V9.907Z" transform="translate(0 0.087)" fill="none"/>
    </clipPath>
    <clipPath id="clip-path-3">
      <path id="Clip_26" data-name="Clip 26" d="M0,38.243V0H51.522V38.243Z" transform="translate(0 0.517)" fill="none"/>
    </clipPath>
    <clipPath id="clip-path-4">
      <path id="Clip_2" data-name="Clip 2" d="M0,9.907V0H51.522V9.907H0Z" transform="translate(0 0.36)" fill="none"/>
    </clipPath>
    <clipPath id="clip-path-7">
      <path id="Clip_33" data-name="Clip 33" d="M0,4.093V0H51.522V4.093H0Z" transform="translate(0 0.601)" fill="none"/>
    </clipPath>
  </defs>
  <g id="Group_1" data-name="Group 1" transform="translate(-46 -0.359)">
    <g id="Group_11" data-name="Group 11" transform="translate(46 10)">
      <path id="Clip_10-2" data-name="Clip 10" d="M0,0V9.906H51.522V0H0Z" transform="translate(0 0.971)" fill="none"/>
      <g id="Group_11-2" data-name="Group 11" clip-path="url(#clip-path)">
        <path id="Fill_9" data-name="Fill 9" d="M46.495,9.906l-.079,0c-.051,0-.1,0-.153,0l-.191,0-.192,0H5.661c-1.255,0-1.255,0-1.361-1.167l0-.03c-.069-.76-.16-1.528-.249-2.272q-.055-.458-.108-.914c-.052-.46-.063-.691.05-.818s.4-.145.85-.145q10.495,0,20.991,0,10.3,0,20.607,0c.675,0,1.014,0,1.158.161s.1.452.031,1.045l0,.022-.021.173c-.123,1.035-.25,2.1-.336,3.159C47.224,9.663,46.986,9.906,46.495,9.906Zm4.195-6.529c-.074,0-.15,0-.224-.005s-.149-.005-.223-.005H1.2c-.631,0-.923-.017-1.073-.175S-.015,2.746.018,2.167A2.216,2.216,0,0,1,2.187.022c.175-.015.353-.016.507-.016H18.146C27.895.006,38.362,0,48.852,0h.011c1.382,0,2.157.422,2.511,1.368a3.846,3.846,0,0,1,.143,1.414q0,.08,0,.159c0,.138-.254.346-.435.394A1.481,1.481,0,0,1,50.689,3.377Z" transform="translate(-0.001 0.971)" fill="#b4d339"/>
      </g>
    </g>
    <g id="Group_19" data-name="Group 19" transform="translate(46 18)">
      <path id="Clip_18-2" data-name="Clip 18" d="M0,9.907V0H51.522V9.907Z" transform="translate(0 0.087)" fill="none"/>
    </g>
    <g id="Group_27" data-name="Group 27" transform="translate(46 25)">
      <path id="Clip_26-3" data-name="Clip 26" d="M0,38.243V0H51.522V38.243Z" transform="translate(0 0.517)" fill="none"/>
      <g id="Group_27-2" data-name="Group 27" clip-path="url(#clip-path-3)">
        <path id="Fill_25" data-name="Fill 25" d="M37.43,38.243c-.66,0-1.33,0-2.015-.008a1.412,1.412,0,0,1-1.62-1.5c-.1-1.319-.189-2.66-.275-3.956-.067-1.012-.137-2.059-.211-3.089l-.036-.5c-.4-5.521-.809-11.229-1.245-16.843a.693.693,0,0,1,.113-.538.764.764,0,0,1,.58-.149c1.336,0,2.641,0,3.852,0h2.2l1.609,0,1.608,0c1.021,0,1.849-.006,2.6-.017h.048a.8.8,0,0,1,.63.186.9.9,0,0,1,.1.716c-.351,2.8-.689,5.647-1.016,8.4v.018q-.239,2.01-.479,4.02l-.147,1.225c-.35,2.91-.711,5.919-1.08,8.877a3.581,3.581,0,0,1-3.559,3.139C38.584,38.24,38.04,38.243,37.43,38.243Zm-23.276,0c-.574,0-1.092,0-1.584-.005a3.678,3.678,0,0,1-3.661-3.39c-.314-2.753-.653-5.548-.981-8.252-.16-1.32-.325-2.685-.487-4.038q-.186-1.551-.37-3.1c-.279-2.344-.566-4.766-.862-7.147a.618.618,0,0,1,.09-.495c.1-.108.254-.151.547-.151h.013c.842,0,1.735.006,2.9.006h3.158l1.572,0h.02l1.552,0c1.1,0,1.948,0,2.751-.011h.026a.816.816,0,0,1,.632.186.77.77,0,0,1,.134.608c-.13,1.623-.25,3.274-.365,4.87-.075,1.036-.153,2.1-.232,3.155q-.222,2.894-.446,5.787v.027c-.221,2.857-.449,5.812-.67,8.719-.022.292-.027.59-.032.879,0,.26-.009.528-.026.792a1.452,1.452,0,0,1-1.654,1.559C15.565,38.238,14.853,38.241,14.154,38.241Zm5.7-1.248a.787.787,0,0,1-.608-.189.816.816,0,0,1-.143-.641c.122-1.539.234-3.1.343-4.616v-.01c.079-1.092.16-2.221.244-3.331.185-2.43.376-4.89.559-7.269l0-.043c.183-2.368.372-4.818.556-7.226a13.434,13.434,0,0,0,.044-1.369.537.537,0,0,1,.629-.639h.006c1.682,0,3.046.007,4.292.007,1.557,0,2.961,0,4.292-.011.605,0,.631.367.661.792.2,2.826.417,5.863.706,9.849.292,4.048.6,8.36.921,12.652l0,.024c.074,1,.111,1.506-.124,1.759s-.756.256-1.79.256H25.778l-1.652,0h-.051l-1.705,0c-.969,0-1.761,0-2.491.009ZM46.494,10.331l-.078,0c-.054,0-.112,0-.179,0l-.178,0-.179,0H5.661c-1.255,0-1.255,0-1.361-1.217l0-.031c-.069-.792-.16-1.593-.249-2.369q-.054-.477-.108-.954C3.889,5.275,3.877,5.033,4,4.9s.4-.147.846-.147h41.6c.671,0,1.007,0,1.153.163s.107.472.036,1.094l0,.023-.021.188c-.122,1.076-.249,2.189-.335,3.288C47.225,10.078,46.985,10.331,46.494,10.331Zm4.2-6.81c-.074,0-.151,0-.225-.006s-.15-.006-.224-.006H1.2c-.612,0-.916-.018-1.068-.177S-.016,2.883.018,2.26A2.263,2.263,0,0,1,2.187.023c.178-.017.361-.018.519-.018H21.268c8.187,0,17.867,0,27.584-.006h.011c1.382,0,2.157.44,2.512,1.427A4.176,4.176,0,0,1,51.518,2.9q0,.083,0,.166c0,.144-.254.361-.435.411A1.423,1.423,0,0,1,50.691,3.521Z" transform="translate(-0.001 0.517)" fill="#b4d339"/>
      </g>
    </g>
    <g id="Group_3_Copy" data-name="Group 3 Copy" transform="translate(46)">
      <path id="Clip_2-3" data-name="Clip 2" d="M0,9.907V0H51.522V9.907H0Z" transform="translate(0 0.36)" fill="none"/>
      <g id="Group_3_Copy-2" data-name="Group 3 Copy" clip-path="url(#clip-path-4)">
        <path id="Fill_1" data-name="Fill 1" d="M46.495,9.907l-.079,0c-.054,0-.112,0-.179,0l-.178,0-.179,0H5.661c-1.255,0-1.255,0-1.361-1.167l0-.03c-.069-.76-.16-1.529-.249-2.273-.037-.307-.073-.61-.107-.913-.052-.46-.063-.691.05-.818s.4-.145.85-.145h41.6c.675,0,1.014,0,1.158.161s.1.452.031,1.045l0,.022-.021.173c-.123,1.035-.25,2.1-.336,3.159C47.225,9.665,46.986,9.907,46.495,9.907Zm4.195-6.531c-.074,0-.15,0-.224-.005s-.149-.005-.223-.005H1.2c-.631,0-.923-.017-1.073-.175S-.015,2.746.018,2.167A2.216,2.216,0,0,1,2.187.022c.175-.015.354-.016.507-.016H18.2C27.929.006,38.374,0,48.852,0h.011c1.382,0,2.157.422,2.511,1.368a3.846,3.846,0,0,1,.143,1.414q0,.08,0,.159c0,.138-.254.346-.435.394A1.482,1.482,0,0,1,50.689,3.377Z" transform="translate(-0.001 1.36)" fill="#b4d339"/>
      </g>
    </g>
    <g id="Group_3_Copy-3" data-name="Group 3 Copy" transform="translate(46 18)">
      <path id="Clip_2-4" data-name="Clip 2" d="M0,9.907V0H51.522V9.907H0Z" transform="translate(0 0.36)" fill="none"/>
      <g id="Group_3_Copy-4" data-name="Group 3 Copy" clip-path="url(#clip-path-4)">
        <path id="Fill_1-2" data-name="Fill 1" d="M46.495,9.907l-.079,0c-.054,0-.112,0-.179,0l-.178,0-.179,0H5.661c-1.255,0-1.255,0-1.361-1.167l0-.03c-.069-.76-.16-1.529-.249-2.273-.037-.307-.073-.61-.107-.913-.052-.46-.063-.691.05-.818s.4-.145.85-.145h41.6c.675,0,1.014,0,1.158.161s.1.452.031,1.045l0,.022-.021.173c-.123,1.035-.25,2.1-.336,3.159C47.225,9.665,46.986,9.907,46.495,9.907Zm4.195-6.531c-.074,0-.15,0-.224-.005s-.149-.005-.223-.005H1.2c-.631,0-.923-.017-1.073-.175S-.015,2.746.018,2.167A2.216,2.216,0,0,1,2.187.022c.175-.015.354-.016.507-.016H18.2C27.929.006,38.374,0,48.852,0h.011c1.382,0,2.157.422,2.511,1.368a3.846,3.846,0,0,1,.143,1.414q0,.08,0,.159c0,.138-.254.346-.435.394A1.482,1.482,0,0,1,50.689,3.377Z" transform="translate(-0.001 0.36)" fill="#b4d339"/>
      </g>
    </g>
    <g id="Group_27-3" data-name="Group 27" transform="translate(46 25)">
      <path id="Clip_26-4" data-name="Clip 26" d="M0,38.243V0H51.522V38.243Z" transform="translate(0 0.517)" fill="none"/>
      <g id="Group_27-4" data-name="Group 27" clip-path="url(#clip-path-3)">
        <path id="Fill_25-2" data-name="Fill 25" d="M37.43,38.243c-.66,0-1.33,0-2.015-.008a1.412,1.412,0,0,1-1.62-1.5c-.1-1.319-.189-2.66-.275-3.956-.067-1.012-.137-2.059-.211-3.089l-.036-.5c-.4-5.521-.809-11.229-1.245-16.843a.693.693,0,0,1,.113-.538.764.764,0,0,1,.58-.149c1.336,0,2.641,0,3.852,0h2.2l1.609,0,1.608,0c1.021,0,1.849-.006,2.6-.017h.048a.8.8,0,0,1,.63.186.9.9,0,0,1,.1.716c-.351,2.8-.689,5.647-1.016,8.4v.018q-.239,2.01-.479,4.02l-.147,1.225c-.35,2.91-.711,5.919-1.08,8.877a3.581,3.581,0,0,1-3.559,3.139C38.584,38.24,38.04,38.243,37.43,38.243Zm-23.276,0c-.574,0-1.092,0-1.584-.005a3.678,3.678,0,0,1-3.661-3.39c-.314-2.753-.653-5.548-.981-8.252-.16-1.32-.325-2.685-.487-4.038q-.186-1.551-.37-3.1c-.279-2.344-.566-4.766-.862-7.147a.618.618,0,0,1,.09-.495c.1-.108.254-.151.547-.151h.013c.842,0,1.735.006,2.9.006h3.158l1.572,0h.02l1.552,0c1.1,0,1.948,0,2.751-.011h.026a.816.816,0,0,1,.632.186.77.77,0,0,1,.134.608c-.13,1.623-.25,3.274-.365,4.87-.075,1.036-.153,2.1-.232,3.155q-.222,2.894-.446,5.787v.027c-.221,2.857-.449,5.812-.67,8.719-.022.292-.027.59-.032.879,0,.26-.009.528-.026.792a1.452,1.452,0,0,1-1.654,1.559C15.565,38.238,14.853,38.241,14.154,38.241Zm5.7-1.248a.787.787,0,0,1-.608-.189.816.816,0,0,1-.143-.641c.122-1.539.234-3.1.343-4.616v-.01c.079-1.092.16-2.221.244-3.331.185-2.43.376-4.89.559-7.269l0-.043c.183-2.368.372-4.818.556-7.226a13.434,13.434,0,0,0,.044-1.369.537.537,0,0,1,.629-.639h.006c1.682,0,3.046.007,4.292.007,1.557,0,2.961,0,4.292-.011.605,0,.631.367.661.792.2,2.826.417,5.863.706,9.849.292,4.048.6,8.36.921,12.652l0,.024c.074,1,.111,1.506-.124,1.759s-.756.256-1.79.256H25.778l-1.652,0h-.051l-1.705,0c-.969,0-1.761,0-2.491.009ZM46.494,10.331l-.078,0c-.054,0-.112,0-.179,0l-.178,0-.179,0H5.661c-1.255,0-1.255,0-1.361-1.217l0-.031c-.069-.792-.16-1.593-.249-2.369q-.054-.477-.108-.954C3.889,5.275,3.877,5.033,4,4.9s.4-.147.846-.147h41.6c.671,0,1.007,0,1.153.163s.107.472.036,1.094l0,.023-.021.188c-.122,1.076-.249,2.189-.335,3.288C47.225,10.078,46.985,10.331,46.494,10.331Zm4.2-6.81c-.074,0-.151,0-.225-.006s-.15-.006-.224-.006H1.2c-.612,0-.916-.018-1.068-.177S-.016,2.883.018,2.26A2.263,2.263,0,0,1,2.187.023c.178-.017.361-.018.519-.018H21.268c8.187,0,17.867,0,27.584-.006h.011c1.382,0,2.157.44,2.512,1.427A4.176,4.176,0,0,1,51.518,2.9q0,.083,0,.166c0,.144-.254.361-.435.411A1.423,1.423,0,0,1,50.691,3.521Z" transform="translate(-0.001 0.517)" fill="none"/>
      </g>
    </g>
    <g id="Group_34" data-name="Group 34" transform="translate(46 25)">
      <path id="Clip_33-2" data-name="Clip 33" d="M0,4.093V0H51.522V4.093H0Z" transform="translate(0 0.601)" fill="none"/>
      <g id="Group_34-2" data-name="Group 34" clip-path="url(#clip-path-7)">
        <path id="Fill_32" data-name="Fill 32" d="M25.724,4.08H1.2C0,4.08-.047,4.016.018,2.627A2.48,2.48,0,0,1,2.187.027a6.532,6.532,0,0,1,.691-.02Q25.865.007,48.852,0a2.289,2.289,0,0,1,2.523,1.658,6.375,6.375,0,0,1,.141,1.907c0,.169-.258.42-.435.478a2.766,2.766,0,0,1-.838.038H25.724" transform="translate(-0.001 0.601)" fill="#b4d339"/>
      </g>
    </g>
    <path id="Fill_35" data-name="Fill 35" d="M5,2.5A2.5,2.5,0,1,1,2.5,0,2.5,2.5,0,0,1,5,2.5" transform="translate(55 62)" fill="#b4d339"/>
    <path id="Stroke_37" data-name="Stroke 37" d="M5,2.5A2.5,2.5,0,1,1,2.5,0,2.5,2.5,0,0,1,5,2.5Z" transform="translate(55 62)" fill="#002f6c" stroke="#fdfeff" stroke-miterlimit="10" stroke-width="0.5"/>
    <path id="Fill_39" data-name="Fill 39" d="M5,2.5A2.5,2.5,0,1,1,2.5,0,2.5,2.5,0,0,1,5,2.5" transform="translate(82 62)" fill="#002f6c"/>
    <path id="Stroke_41" data-name="Stroke 41" d="M5,2.5A2.5,2.5,0,1,1,2.5,0,2.5,2.5,0,0,1,5,2.5Z" transform="translate(82 62)" fill="none" stroke="#fdfeff" stroke-miterlimit="10" stroke-width="0.5"/>
  </g>
</svg>
