<svg xmlns="http://www.w3.org/2000/svg" width="19.485" height="14.799" viewBox="0 0 19.485 14.799">
  <g id="TWITTER" transform="translate(-0.257)">
    <g id="Twitter-2" data-name="Twitter">
      <path id="Fill_1" data-name="Fill 1" d="M18.931.328a6.8,6.8,0,0,1-2.507.832h0A4.148,4.148,0,0,0,13.518,0,3.9,3.9,0,0,0,9.5,3.757a3.523,3.523,0,0,0,.1.839h0A11.418,11.418,0,0,1,1.312.7,3.617,3.617,0,0,0,2.532,5.661,2.722,2.722,0,0,1,.776,5.236a3.664,3.664,0,0,0,3.1,3.673A3.4,3.4,0,0,1,2.2,9.028c.128,1.105,1.783,2.55,3.593,2.55A7.477,7.477,0,0,1,0,13.138,12.713,12.713,0,0,0,6.288,14.8c6.485,0,11.522-4.913,11.251-10.974,0-.007,0-.013,0-.021s0-.031,0-.047,0-.037,0-.055a6.7,6.7,0,0,0,1.949-1.924,7.417,7.417,0,0,1-2.229.591A4.042,4.042,0,0,0,18.931.328" transform="translate(0.257)" fill="#b8b8b9"/>
    </g>
  </g>
</svg>
