<svg xmlns="http://www.w3.org/2000/svg" xmlns:xlink="http://www.w3.org/1999/xlink" width="24.779" height="23.215" viewBox="0 0 24.779 23.215">
  <defs>
    <clipPath id="clip-path">
      <path id="Clip_18" data-name="Clip 18" d="M0,3.963V0H23.779V3.963Z" transform="translate(0 0.035)" fill="none"/>
    </clipPath>
    <clipPath id="clip-path-2">
      <path id="Clip_26" data-name="Clip 26" d="M0,17.034V0H23.779V17.034Z" transform="translate(0 0.23)" fill="none"/>
    </clipPath>
    <clipPath id="clip-path-4">
      <path id="Clip_33" data-name="Clip 33" d="M0,1.777V0H23.779V1.777H0Z" transform="translate(0 0.261)" fill="none"/>
    </clipPath>
  </defs>
  <g id="box_icon" data-name="box icon" transform="translate(0 -0.035)">
    <g id="Group_19" data-name="Group 19" transform="translate(1)">
      <path id="Clip_18-2" data-name="Clip 18" d="M0,3.963V0H23.779V3.963Z" transform="translate(0 0.035)" fill="none"/>
    </g>
    <g id="Group_5" data-name="Group 5" transform="translate(0 4)">
      <g id="Group_27" data-name="Group 27">
        <path id="Clip_26-3" data-name="Clip 26" d="M0,17.034V0H23.779V17.034Z" transform="translate(0 0.23)" fill="none"/>
        <g id="Group_27-2" data-name="Group 27" clip-path="url(#clip-path-2)">
          <path id="Fill_25" data-name="Fill 25" d="M17.263,17.034q-.458,0-.918,0c-.486,0-.71-.2-.747-.67-.046-.585-.087-1.179-.127-1.753-.031-.454-.064-.923-.1-1.385-.2-2.735-.389-5.2-.591-7.725a.3.3,0,0,1,.05-.236.357.357,0,0,1,.27-.069l1.676,0H19.36c.48,0,.868,0,1.222-.008H20.6a.37.37,0,0,1,.292.086.392.392,0,0,1,.046.316c-.163,1.249-.319,2.518-.47,3.745v.007q-.11.895-.221,1.789c-.182,1.466-.37,2.978-.566,4.5a1.633,1.633,0,0,1-1.642,1.4C17.8,17.033,17.548,17.034,17.263,17.034Zm-10.73,0q-.366,0-.731,0a1.674,1.674,0,0,1-1.69-1.509c-.147-1.242-.305-2.5-.458-3.723l0-.014q-.109-.869-.217-1.737-.1-.8-.2-1.605c-.12-.973-.244-1.976-.37-2.961A.27.27,0,0,1,2.9,5.262c.043-.049.117-.069.253-.069h.007q.7,0,1.4,0H7.391c.516,0,.913,0,1.289,0h.013a.378.378,0,0,1,.293.085.338.338,0,0,1,.059.268c-.062.747-.119,1.508-.174,2.243q-.05.669-.1,1.331Q8.675,10.3,8.58,11.486c-.108,1.341-.219,2.728-.327,4.107-.01.129-.013.261-.015.389s0,.237-.012.355c-.032.477-.268.691-.763.694Zm2.632-.556a.365.365,0,0,1-.282-.087.358.358,0,0,1-.063-.283c.056-.686.108-1.382.158-2.056q.055-.744.113-1.487.128-1.619.258-3.238t.258-3.238a5.764,5.764,0,0,0,.021-.609.286.286,0,0,1,.063-.215.307.307,0,0,1,.228-.07l1.984,0c.73,0,1.378,0,1.981,0,.28,0,.291.163.3.352.1,1.429.214,2.9.327,4.388l.008.1v.009c.135,1.811.275,3.684.417,5.525v.01c.034.444.051.666-.054.78s-.349.117-.829.117h-3.67c-.474,0-.859,0-1.21,0ZM21.458,4.6h-.036l-.083,0H2.613c-.579,0-.579,0-.628-.543V4.045c-.031-.344-.072-.693-.112-1.031-.018-.153-.036-.3-.052-.449-.024-.214-.029-.321.024-.38s.185-.067.391-.067h19.2c.311,0,.468,0,.534.075s.047.21.015.486v.01l-.013.115c-.055.47-.112.955-.151,1.433C21.8,4.489,21.686,4.6,21.458,4.6ZM23.4,1.568l-.1,0-.1,0H.556c-.291,0-.426-.008-.5-.081s-.068-.2-.053-.476a1.026,1.026,0,0,1,1-1C1.081,0,1.152,0,1.237,0H8.4c4.489,0,9.31,0,14.145,0h.006c.638,0,1,.2,1.159.635a1.79,1.79,0,0,1,.066.654v.077c0,.064-.118.16-.2.183A.679.679,0,0,1,23.4,1.568Z" transform="translate(0 0.23)" fill="#b4d339"/>
        </g>
      </g>
      <g id="Group_27-3" data-name="Group 27">
        <path id="Clip_26-4" data-name="Clip 26" d="M0,17.034V0H23.779V17.034Z" transform="translate(0 0.23)" fill="none"/>
        <g id="Group_27-4" data-name="Group 27" clip-path="url(#clip-path-2)">
          <path id="Fill_25-2" data-name="Fill 25" d="M17.263,17.034q-.458,0-.918,0c-.486,0-.71-.2-.747-.67-.046-.585-.087-1.179-.127-1.753-.031-.454-.064-.923-.1-1.385-.2-2.735-.389-5.2-.591-7.725a.3.3,0,0,1,.05-.236.357.357,0,0,1,.27-.069l1.676,0H19.36c.48,0,.868,0,1.222-.008H20.6a.37.37,0,0,1,.292.086.392.392,0,0,1,.046.316c-.163,1.249-.319,2.518-.47,3.745v.007q-.11.895-.221,1.789c-.182,1.466-.37,2.978-.566,4.5a1.633,1.633,0,0,1-1.642,1.4C17.8,17.033,17.548,17.034,17.263,17.034Zm-10.73,0q-.366,0-.731,0a1.674,1.674,0,0,1-1.69-1.509c-.147-1.242-.305-2.5-.458-3.723l0-.014q-.109-.869-.217-1.737-.1-.8-.2-1.605c-.12-.973-.244-1.976-.37-2.961A.27.27,0,0,1,2.9,5.262c.043-.049.117-.069.253-.069h.007q.7,0,1.4,0H7.391c.516,0,.913,0,1.289,0h.013a.378.378,0,0,1,.293.085.338.338,0,0,1,.059.268c-.062.747-.119,1.508-.174,2.243q-.05.669-.1,1.331Q8.675,10.3,8.58,11.486c-.108,1.341-.219,2.728-.327,4.107-.01.129-.013.261-.015.389s0,.237-.012.355c-.032.477-.268.691-.763.694Zm2.632-.556a.365.365,0,0,1-.282-.087.358.358,0,0,1-.063-.283c.056-.686.108-1.382.158-2.056q.055-.744.113-1.487.128-1.619.258-3.238t.258-3.238a5.764,5.764,0,0,0,.021-.609.286.286,0,0,1,.063-.215.307.307,0,0,1,.228-.07l1.984,0c.73,0,1.378,0,1.981,0,.28,0,.291.163.3.352.1,1.429.214,2.9.327,4.388l.008.1v.009c.135,1.811.275,3.684.417,5.525v.01c.034.444.051.666-.054.78s-.349.117-.829.117h-3.67c-.474,0-.859,0-1.21,0ZM21.458,4.6h-.036l-.083,0H2.613c-.579,0-.579,0-.628-.543V4.045c-.031-.344-.072-.693-.112-1.031-.018-.153-.036-.3-.052-.449-.024-.214-.029-.321.024-.38s.185-.067.391-.067h19.2c.311,0,.468,0,.534.075s.047.21.015.486v.01l-.013.115c-.055.47-.112.955-.151,1.433C21.8,4.489,21.686,4.6,21.458,4.6ZM23.4,1.568l-.1,0-.1,0H.556c-.291,0-.426-.008-.5-.081s-.068-.2-.053-.476a1.026,1.026,0,0,1,1-1C1.081,0,1.152,0,1.237,0H8.4c4.489,0,9.31,0,14.145,0h.006c.638,0,1,.2,1.159.635a1.79,1.79,0,0,1,.066.654v.077c0,.064-.118.16-.2.183A.679.679,0,0,1,23.4,1.568Z" transform="translate(0 0.23)" fill="#002f6c"/>
        </g>
      </g>
      <g id="Group_34" data-name="Group 34">
        <path id="Clip_33-2" data-name="Clip 33" d="M0,1.777V0H23.779V1.777H0Z" transform="translate(0 0.261)" fill="none"/>
      </g>
      <path id="Stroke_37" data-name="Stroke 37" d="M2.233,1.086A1.1,1.1,0,0,1,1.116,2.171,1.1,1.1,0,0,1,0,1.086,1.1,1.1,0,0,1,1.116,0,1.1,1.1,0,0,1,2.233,1.086Z" transform="translate(3.907 16.829)" fill="#002f6c" stroke="#fdfeff" stroke-miterlimit="10" stroke-width="0.5"/>
      <path id="Fill_39" data-name="Fill 39" d="M2.233,1.086A1.1,1.1,0,0,1,1.116,2.171,1.1,1.1,0,0,1,0,1.086,1.1,1.1,0,0,1,1.116,0,1.1,1.1,0,0,1,2.233,1.086" transform="translate(17.302 16.829)" fill="#002f6c" stroke="#fff" stroke-miterlimit="10" stroke-width="0.5"/>
    </g>
  </g>
</svg>
