<?xml version="1.0" encoding="UTF-8"?>
<svg width="180px" height="44px" viewBox="0 0 180 44" version="1.1" xmlns="http://www.w3.org/2000/svg" xmlns:xlink="http://www.w3.org/1999/xlink">
    <!-- Generator: sketchtool 51.3 (57544) - http://www.bohemiancoding.com/sketch -->
    <title>8FB38696-3802-4D40-AD65-3A65DC80B445</title>
    <desc>Created with sketchtool.</desc>
    <defs>
        <polygon id="path-1" points="0 0.0430275862 25.9716289 0.0430275862 25.9716289 33.9726476 0 33.9726476"></polygon>
        <polygon id="path-3" points="0.0452975207 0.0430275862 27.9857138 0.0430275862 27.9857138 33.9726066 0.0452975207 33.9726066"></polygon>
        <polygon id="path-5" points="0 44 179 44 179 0 0 0"></polygon>
    </defs>
    <g id="MAIN-SITE" stroke="none" stroke-width="1" fill="none" fill-rule="evenodd">
        <g id="START-ORDER---RENTAL-PERIOD" transform="translate(-61.000000, -39.000000)">
            <g id="CHECKOUT-NAVIGATION" transform="translate(58.000000, 37.000000)">
                <g id="Logo" transform="translate(1.000000, 0.000000)">
                    <g id="Page-1" transform="translate(2.000000, 2.000000)">
                        <g id="Group-3">
                            <mask id="mask-2" fill="white">
                                <use xlink:href="#path-1"></use>
                            </mask>
                            <g id="Clip-2"></g>
                            <path d="M6.80287946,15.5158648 L12.3645318,15.5158648 C16.1806041,15.5158648 17.6515702,13.2203959 17.6515702,10.8787338 C17.6515702,8.44480276 16.0419178,6.33328552 12.9627079,6.33328552 L6.80287946,6.33328552 L6.80287946,15.5158648 Z M10.8473761,21.6222062 L6.80287946,21.6222062 L6.80287946,33.9726476 L-2.3476298e-05,33.9726476 L-2.3476298e-05,0.0429924138 L13.0088975,0.0429924138 C20.9605544,0.0429924138 24.6379991,5.13976828 24.6379991,10.7864062 C24.6379991,14.8729131 22.5701481,19.0049097 17.7426582,20.7497545 L25.9716289,33.9726476 L18.0186808,33.9726476 L10.8473761,21.6222062 Z" id="Fill-1" fill="#B2D235" mask="url(#mask-2)"></path>
                        </g>
                        <path d="M33.4179323,18.5181232 L45.8502551,18.5181232 C45.2674631,15.330577 42.977784,13.3274018 39.74687,13.3274018 C36.5598516,13.3274018 34.1811778,15.2854626 33.4179323,18.5181232 M51.7756509,23.2994423 L33.4179323,23.2994423 C34.1811778,26.3045539 36.3806589,28.5810902 40.5552718,28.5810902 C43.2472322,28.5810902 46.3891515,27.5340393 48.4545388,26.0769468 L50.9673063,30.5849049 C48.6337316,32.314719 44.8188222,34 40.2858237,34 C31.1294566,34 27,27.6707199 27,21.0222665 C27,13.6007629 32.1170512,8 39.74687,8 C46.7036987,8 52,12.5988847 52,20.4761839 C52,21.4780622 51.9097446,22.3884325 51.7756509,23.2994423" id="Fill-4" fill="#B2D235"></path>
                        <g id="Group-8" transform="translate(60.000000, 0.000000)">
                            <mask id="mask-4" fill="white">
                                <use xlink:href="#path-3"></use>
                            </mask>
                            <g id="Clip-7"></g>
                            <path d="M17.6265785,5.96598586 L10.7843388,5.96598586 L9.69754545,13.3575272 L16.1310661,13.3575272 C19.211876,13.3575272 20.7984463,11.2915583 21.0691901,9.50122379 C21.2969504,7.66469621 20.2544132,5.96598586 17.6265785,5.96598586 M16.266438,19.0510617 L8.83590909,19.0510617 L7.52135537,28.0040824 L14.0915785,28.0040824 C18.4868843,28.0040824 20.2088264,25.7086721 20.5264298,23.4586928 C20.8427025,21.2548479 19.6647934,19.0510617 16.266438,19.0510617 M22.2926281,15.4241997 C26.3261322,16.4798997 27.9569587,20.0612721 27.3673388,24.1932686 C26.5981488,29.6566583 22.2926281,33.9726066 14.9532149,33.9726066 L0.0452975207,33.9726066 L5.03022314,0.04301 L19.3485207,0.04301 C26.0541157,0.04301 28.4554628,4.49677552 27.9113719,8.53708931 C27.5039835,11.6588755 25.3747107,14.3216031 22.2926281,15.4241997" id="Fill-6" fill="#002F6C" mask="url(#mask-4)"></path>
                        </g>
                        <path d="M112.369858,20.0452254 C113.015835,16.1495918 110.568645,12.9338435 106.643849,12.9338435 C102.810553,12.9338435 99.3486774,15.8776609 98.6549463,19.7732945 C97.9161731,23.8048357 100.318262,27.0661565 104.288158,27.0661565 C108.21431,27.0661565 111.769041,23.8952866 112.369858,20.0452254 M92.1914618,19.5923927 C93.3918577,12.2540161 99.7638431,7 107.289767,7 C115.55588,7 120.17305,13.2506528 118.741902,20.8603821 C117.355796,27.9717641 111.123123,33 103.781494,33 C95.5153812,33 90.9897688,26.8397402 92.1914618,19.5923927" id="Fill-9" fill="#002F6C"></path>
                        <polygon id="Fill-11" fill="#002F6C" points="155.200901 20.135635 160.923558 9 154.060076 9 146.59587 24.749919 143.25675 9 138.666867 9 130.412845 24.749919 127.86218 9 121 9 125.868252 33 131.571609 33 139.593914 17.9122257 142.886441 33 148.589798 33 149.167019 31.8768043 161.158472 31.8768043 161.158472 28.3949539 150.956404 28.3949539 153.189627 24.0493581 171 24.0493581 171 20.135635"></polygon>
                        <mask id="mask-6" fill="white">
                            <use xlink:href="#path-5"></use>
                        </mask>
                        <g id="Clip-14"></g>
                        <polygon id="Fill-13" fill="#002F6C" mask="url(#mask-6)" points="163 33 170 33 170 29 163 29"></polygon>
                        <path d="M152,37 L59,37 L59,40.3270058 L62.7083025,40.3270058 C62.6682608,40.5213725 62.6468161,40.7222293 62.6468161,40.9279537 C62.6468161,42.6245504 64.0755316,44 65.8378892,44 C67.6002467,44 69.0289041,42.6245504 69.0289041,40.9279537 C69.0289041,40.7222293 69.0075175,40.5213725 68.9674758,40.3270058 L142.204372,40.3270058 C142.16433,40.5213725 142.142944,40.7222293 142.142944,40.9279537 C142.142944,42.6245504 143.571659,44 145.333959,44 C147.096316,44 148.524974,42.6245504 148.524974,40.9279537 C148.524974,40.7222293 148.503645,40.5213725 148.463546,40.3270058 L152,40.3270058 L152,37 Z" id="Fill-17" fill="#002F6C" mask="url(#mask-6)"></path>
                    </g>
                    <g id="Page-1" transform="translate(173.000000, 3.000000)" fill="#A5A2A2">
                        <polygon id="Fill-1" points="0 0 0 0.608833432 1.23827918 0.608833432 1.23827918 5 1.76172082 5 1.76172082 0.608833432 3 0.608833432 3 0"></polygon>
                        <polygon id="Fill-2" points="8.71748831 0 6.50678727 3.22057173 4.27545562 0 4 0 4 5 4.63363529 5 4.63363529 1.5426157 6.41734315 4.12721991 6.57573518 4.12721991 8.35944304 1.5426157 8.35944304 5 9 5 9 0"></polygon>
                    </g>
                </g>
            </g>
        </g>
    </g>
</svg>