<svg id="GOOGLE_PLUS" data-name="GOOGLE PLUS" xmlns="http://www.w3.org/2000/svg" width="19" height="13" viewBox="0 0 19 13">
  <g id="Google_Plus-2" data-name="Google Plus">
    <path id="Fill_186" data-name="Fill 186" d="M.018,6.175A6.559,6.559,0,0,1,6.631.005a6.8,6.8,0,0,1,4.429,1.6A23.309,23.309,0,0,1,9.379,3.317a4.445,4.445,0,0,0-5.157-.133,4.11,4.11,0,0,0-.181,6.486c2.017,1.794,5.828.9,6.386-1.843-1.263-.019-2.53,0-3.793-.04,0-.739-.006-1.477,0-2.216,2.112-.006,4.223-.009,6.338.006a7.336,7.336,0,0,1-1.2,5.024,6.627,6.627,0,0,1-7.544,1.964A6.5,6.5,0,0,1,.018,6.175" transform="translate(0 0)" fill="#b8b8b9"/>
    <path id="Fill_187" data-name="Fill 187" d="M1.675,0H3.328c0,.553.006,1.108.011,1.661.553.006,1.108.006,1.661.011V3.325l-1.661.014Q3.331,4.172,3.328,5H1.672c-.006-.553-.006-1.106-.011-1.658L0,3.325V1.672q.829-.008,1.661-.011c0-.556.008-1.108.014-1.661" transform="translate(14 4)" fill="#b8b8b9"/>
  </g>
</svg>
