<?xml version="1.0" encoding="UTF-8"?>
<svg width="19px" height="13px" viewBox="0 0 19 13" version="1.1" xmlns="http://www.w3.org/2000/svg" xmlns:xlink="http://www.w3.org/1999/xlink">
    <!-- Generator: Sketch 48.2 (47327) - http://www.bohemiancoding.com/sketch -->
    <title>Google Plus</title>
    <desc>Created with Sketch.</desc>
    <defs></defs>
    <g id="CONTACT-" stroke="none" stroke-width="1" fill="none" fill-rule="evenodd" transform="translate(-1189.000000, -1359.000000)">
        <g id="Footer" transform="translate(0.000000, 1106.000000)" fill="#B8B8B9">
            <g id="Google-Plus" transform="translate(1189.000000, 253.000000)">
                <path d="M0.0176182911,6.17486046 C0.0747124439,2.82634225 3.21511652,-0.10629341 6.63106194,0.00541972289 C8.26761054,-0.0689082232 9.80621898,0.629243556 11.059808,1.60988577 C10.5249734,2.20561541 9.97095705,2.77988728 9.37880267,3.31677396 C7.87201351,2.29564956 5.72861326,2.00408934 4.22182409,3.18338185 C2.0657864,4.64494357 1.96784623,8.09588393 4.04128922,9.66915879 C6.05786373,11.4629841 9.86963185,10.5721548 10.4268076,7.82578148 C9.16351484,7.80719949 7.89728839,7.82578148 6.6342213,7.78552051 C6.63106194,7.04688654 6.62790258,6.30825258 6.63106194,5.56961862 C8.74264292,5.56342462 10.8542239,5.56032762 12.9689642,5.57581261 C13.0955643,7.31367078 12.8613203,9.16324208 11.7722437,10.600249 C10.122832,12.8749939 6.81137114,13.5390787 4.22814281,12.5646305 C1.6354364,11.5963762 -0.200828902,8.91194284 0.0176182911,6.17486046" id="Fill-186"></path>
                <path d="M15.6749832,4 L17.327789,4 C17.3305612,4.55284939 17.3333333,5.10827294 17.3388777,5.66112233 C17.8917271,5.66666667 18.4471506,5.66666667 19,5.672211 L19,7.32501683 C18.4471506,7.33056117 17.8944992,7.33333333 17.3388777,7.33887767 C17.3333333,7.89449923 17.3305612,8.44734862 17.327789,9 L15.672211,9 C15.6666667,8.44734862 15.6666667,7.89449923 15.6611223,7.34164984 C15.1082729,7.3361055 14.5526514,7.33056117 14,7.32501683 L14,5.672211 C14.5526514,5.66666667 15.1055008,5.6638945 15.6611223,5.66112233 C15.6638945,5.10550077 15.6694388,4.55284939 15.6749832,4" id="Fill-187"></path>
            </g>
        </g>
    </g>
</svg>