<svg id="Group_6" data-name="Group 6" xmlns="http://www.w3.org/2000/svg" width="20" height="20" viewBox="0 0 20 20">
  <path id="Fill_33" data-name="Fill 33" d="M16.25,20H3.749A3.754,3.754,0,0,1,0,16.25V3.75A3.754,3.754,0,0,1,1.25.96V16.25a2.5,2.5,0,0,0,2.5,2.5h12.5a2.5,2.5,0,0,0,2.5-2.5v-10h-5.3a5.08,5.08,0,0,0-6.9,0H5V0H16.25A3.755,3.755,0,0,1,20,3.75v12.5A3.754,3.754,0,0,1,16.25,20ZM15.625,1.875a1.252,1.252,0,0,0-1.25,1.25V3.75A1.252,1.252,0,0,0,15.625,5h1.25a1.252,1.252,0,0,0,1.25-1.25V3.125a1.252,1.252,0,0,0-1.25-1.25Z" fill="#b8b8b9"/>
  <path id="Fill_35" data-name="Fill 35" d="M1,6V0A2.55,2.55,0,0,0,0,.209V6Z" transform="translate(2)" fill="#b8b8b9"/>
  <path id="Fill_37" data-name="Fill 37" d="M4,8A4,4,0,1,1,8,4,4,4,0,0,1,4,8ZM4,1.333A2.667,2.667,0,1,0,6.667,4,2.671,2.671,0,0,0,4,1.333Z" transform="translate(6 7)" fill="#b8b8b9"/>
</svg>
